<svg data-name="Layer 1" xmlns="http://www.w3.org/2000/svg" viewBox="0 0 512 512"><path d="M453.9 58.1Q512 116.2 512 198.4q0 82.4-58.1 140.6-50.2 50.1-120.5 57-69.5 6.9-127.6-30.6a27.3 27.3 0 0 1-3.7 4.2l-130 130A40.7 40.7 0 0 1 42.3 512a40.7 40.7 0 0 1-29.9-12.4 42 42 0 0 1 0-59.7l130-130a27 27 0 0 1 4.3-3.7Q109 248 116 178.6q6.8-70.3 57-120.5Q231.2 0 313.3 0 395.8 0 454 58.1zm-33 247.8q44.4-44.3 44.4-107.5 0-62.9-44.4-107.2-44.4-44.7-107.6-44.7-62.9 0-107.2 44.6-44.7 44.4-44.7 107.3 0 63.2 44.7 107.5 44.4 44.4 107.2 44.4 63.2 0 107.6-44.4zM231.7 111.5q34.6-32.2 81.6-32.2 47.3 0 82 32.2l-25.4 25.4q-23.8-21.7-56.6-21.7-32.5 0-56.2 21.7z"/></svg>